<?xml version="1.0" standalone="no"?>
<!DOCTYPE svg PUBLIC "-//W3C//DTD SVG 1.1//EN" "http://www.w3.org/Graphics/SVG/1.1/DTD/svg11.dtd" >
<!--
2013-9-30: Created.
-->
<svg>
<metadata>
Created by iconfont
</metadata>
<defs>

<font id="iconfont" horiz-adv-x="1024" >
  <font-face
    font-family="iconfont"
    font-weight="500"
    font-stretch="normal"
    units-per-em="1024"
    ascent="896"
    descent="-128"
  />
    <missing-glyph />
    
    <glyph glyph-name="jiazai" unicode="&#58887;" d="M827.211075 674.323464m-54.351151 0a54.351151 54.351151 0 1 1 108.702302 0 54.351151 54.351151 0 1 1-108.702302 0ZM940.905298 380.600053m-67.086951 0a67.086952 67.086952 0 1 1 134.173903 0 67.086952 67.086952 0 1 1-134.173903 0ZM829.755035 85.404666m-78.974766 0a78.974766 78.974766 0 1 1 157.949532 0 78.974766 78.974766 0 1 1-157.949532 0ZM534.831643-32.64149m-91.48657 0a91.486571 91.486571 0 1 1 182.973141 0 91.486571 91.486571 0 1 1-182.973141 0ZM243.780191 90.044593m-101.902408 0a101.902408 101.902408 0 1 1 203.804816 0 101.902408 101.902408 0 1 1-203.804816 0ZM536.623615 788.129685m-107.854315 0a107.854315 107.854315 0 1 1 215.70863 0 107.854315 107.854315 0 1 1-215.70863 0ZM243.780191 671.779503m-107.854315 0a107.854315 107.854315 0 1 1 215.70863 0 107.854315 107.854315 0 1 1-215.70863 0ZM129.429978 383.992m-102.766395 0a102.766394 102.766394 0 1 1 205.532789 0 102.766394 102.766394 0 1 1-205.532789 0Z"  horiz-adv-x="1024" />

    
    <glyph glyph-name="paixu" unicode="&#58988;" d="M356.12444445-55.18222221999997c-22.528 0-40.96 18.432-40.96 40.96V782.22222222c0 22.528 18.432 40.96 40.96 40.96s40.96-18.432 40.96-40.96v-796.44444444c0-22.528-18.432-40.96-40.96-40.96zM382.52088889-45.624888889999966c-17.29422222-14.44977778-43.23555555-12.17422222-57.68533334 5.00622222L84.87822222 245.30488889000003c-14.44977778 17.29422222-12.17422222 43.23555555 5.00622223 57.68533333 17.29422222 14.44977778 43.23555555 12.17422222 57.68533333-5.00622222l239.84355555-285.92355555c14.56355555-17.29422222 12.288-43.23555555-4.89244444-57.68533334zM667.87555555 823.18222222c22.528 0 40.96-18.432 40.96-40.96v-796.44444444c0-22.528-18.432-40.96-40.96-40.96s-40.96 18.432-40.96 40.96V782.22222222c0 22.528 18.432 40.96 40.96 40.96zM641.47911111 813.62488889c17.29422222 14.44977778 43.23555555 12.17422222 57.68533334-5.00622222l239.84355555-285.92355556c14.44977778-17.29422222 12.17422222-43.23555555-5.00622222-57.68533333-17.29422222-14.44977778-43.23555555-12.17422222-57.68533333 5.00622222L636.47288889 755.93955555c-14.44977778 17.29422222-12.17422222 43.23555555 5.00622222 57.68533334z"  horiz-adv-x="1024" />

    
    <glyph glyph-name="duorenpintuan" unicode="&#58957;" d="M509.00000029 582.74999971m-129.00000058 0a128.99999971 128.99999971 0 1 1 258.00000029 0 128.99999971 128.99999971 0 1 1-258.00000029 0ZM499.24999971 56.24999971c103.5 0 195.59999971 22.05 254.7 56.25 0.60000029 8.25000029 1.05000029 16.49999971 1.05000029 24.90000029 0 152.39999971-108.74999971 276.00000029-243 276.00000029s-243-123.59999971-243-276.00000029c0-13.05 0.74999971-25.94999971 2.40000029-38.54999971 58.34999971-26.39999971 138.89999971-42.59999971 227.84999942-42.60000058zM808.70000029 507.75m-70.2 0a70.2 70.2 0 1 1 140.4 0 70.2 70.2 0 1 1-140.4 0ZM810.19999971 415.5c-37.64999971 0-71.70000029-18-95.85-46.64999971 40.34999971-27.45 69.75-82.19999971 76.65000029-147.30000029 4.05-0.15000029 8.1-0.15000029 12.30000029-0.15000029 56.25 0 106.49999971 11.99999971 138.6 30.6 0.29999971 4.5 0.60000029 9 0.59999942 13.5 0 82.8-59.24999971 150.00000029-132.3 150.00000029zM215.29999971 507.75m-70.2 0a70.2 70.2 0 1 1 140.4 0 70.2 70.2 0 1 1-140.4 0ZM213.80000029 415.5c37.64999971 0 71.70000029-18 95.85-46.64999971-40.34999971-27.45-69.75-82.19999971-76.65000029-147.30000029-4.05-0.15000029-8.1-0.15000029-12.30000029-0.15000029-56.25 0-106.49999971 11.99999971-138.6 30.6-0.29999971 4.5-0.60000029 9-0.59999942 13.5 0.15000029 82.8 59.10000029 150.00000029 132.3 150.00000029z"  horiz-adv-x="1024" />

    
    <glyph glyph-name="fangzi" unicode="&#58914;" d="M831.28027344 47.704101560000026V728.77734375L681.43554688 834 287.20214844 728.77734375v-101.59277344h56.23242187v51.00292969l322.88378906 80.60449219 94.08691407-70.18066407v-697.68457031h172.63476562v56.77734375H831.28027344zM148.26464844 523.96582031V47.73046875h-56.25v-57.28710938h615.48046875V564.51855469L567.45898438 679.25097656zM496.1796875 214.0546875l-237.92871094-53.45507813v37.58203125L496.1796875 256.84863281z m0 96.6796875l-237.92871094-53.41992188v37.58203125L496.1796875 353.56347656z m0 96.6796875L258.25097656 354.02929687000005v37.58203126L496.1796875 450.28710938z"  horiz-adv-x="1024" />

    
    <glyph glyph-name="wujiaoxingquanxing" unicode="&#59103;" d="M558.8560083 803.57878887l98.46125772-208.73111836a52.57639951 52.57639951 0 0 1 39.36201064-29.91512812l220.42725908-33.73886602a55.33174072 55.33174072 0 0 0 28.95919366-93.1192708l-159.52860528-162.50887178a56.23144365 56.23144365 0 0 1-14.95756406-48.30281015l37.61883544-229.42429015a52.80132568 52.80132568 0 0 0-75.79998632-57.58099804l-197.09120918 108.58291699a50.10221602 50.10221602 0 0 1-48.58396787 0l-197.14744072-108.30176015a52.74509414 52.74509414 0 0 0-75.74375479 57.58099804l37.95622471 229.59298477a56.23144365 56.23144365 0 0 1-15.07002715 48.30281016L78.02093428 438.3555624a55.21927763 55.21927763 0 0 0 28.9029621 93.00680771l220.37102755 33.7388669a52.52016797 52.52016797 0 0 1 39.36201064 29.91512724L465.11819229 803.57878887a51.28307666 51.28307666 0 0 0 93.68158446 0"  horiz-adv-x="1024" />

    
    <glyph glyph-name="wujiaoxingxingxing" unicode="&#59104;" d="M737.792-14.69399999999996a57.242 57.242 0 0 0-26.726 6.656l-197.53 103.833-197.53-103.833a57.242 57.242 0 0 0-83.046 60.364l37.683 220.16-159.795 155.546a57.293 57.293 0 0 0 31.744 97.69l220.928 32.05 98.662 199.988a56.832 56.832 0 0 0 51.2 31.898 56.934 56.934 0 0 0 51.2-31.898l98.765-200.14 220.826-32.052a57.293 57.293 0 0 0 32.307-97.536l-159.795-155.75 37.734-220.16A57.395 57.395 0 0 0 738.1-14.899999999999977zM159.846 465.92l155.29-151.398a57.242 57.242 0 0 0 16.435-50.688l-36.659-213.556 192 100.916a57.088 57.088 0 0 0 53.3 0L732.16 50.27800000000002l-36.66 213.76a57.344 57.344 0 0 0 16.436 50.688l155.34 151.194-214.63 31.18a57.293 57.293 0 0 0-43.11 31.335l-96 194.56-96-194.56a57.242 57.242 0 0 0-43.11-31.334z m715.674-1.024z m-365.722 265.83z"  horiz-adv-x="1024" />

    
    <glyph glyph-name="gantanhao1" unicode="&#59100;" d="M512.00300668 120.86131497999997c-25.58640399 0-46.30206995 20.71967542-46.30207077 46.29705934 0 25.58139258 20.71566678 46.30307272 46.30207077 46.30307273 25.58039062 0 46.29806131-20.72168015 46.29806131-46.30307273 0-25.57738394-20.71767068-46.29705936-46.29806131-46.29705935m0 138.89819339c-12.78217722 0-23.15504361 20.72168015-23.15504443 46.30307272l-23.14702634 208.35029636c0 25.58239536 20.71566678 46.30206995 46.30207077 46.30207077 25.58039062 0 46.29806131-20.71967542 46.29806131-46.30207077l-23.15103497-208.35029636c0-25.58439926-10.37186445-46.30307272-23.14702634-46.30307272m0 0zM922.50593759 340.78712963c0 55.40714182-10.8559314 109.16965833-32.26813357 159.795259-20.67658072 48.88476398-50.27081946 92.78353647-87.96491318 130.47662907-37.69008591 37.69208981-81.59186509 67.28833328-130.47562628 87.96391122C621.17166306 740.4351311 567.40914655 751.29206445 512.00100195 751.29206445c-55.40714182 0-109.16965833-10.85693335-159.79525982-32.26913553-48.88476398-20.67658072-92.78453842-50.27182141-130.47662824-87.96491399-37.69208981-37.69309259-67.28833328-81.59086231-87.964914-130.4756263C112.35199854 449.95778991 101.49506436 396.19427145 101.49506436 340.78712963c0-55.40714182 10.8559314-109.16965833 32.26913553-159.79525982 20.67658072-48.88476398 50.27182141-92.78253369 87.964914-130.47562628 37.69108786-37.69208981 81.59186509-67.28933524 130.47662823-87.964914 50.62459872-21.41220218 104.38811801-32.26813358 159.79525983-32.26813359 55.40814377 0 109.17066028 10.8559314 159.79626261 32.26813359a712.21002758 712.21002758 0 0 1 4.80158432 2.05954019c20.39495938 8.83247058 40.27478384 18.81247083 58.80162469 31.15267383 6.6887449 4.45682511 13.28729095 9.20629468 19.45087894 14.28348779 9.8867947 8.13693713 11.36505377 22.73812482 3.27822666 32.68705627-8.11789508 9.98501166-22.79224429 11.49834732-32.77925986 3.38045225-4.33756219-3.52577253-8.87155664-6.86112533-13.47069617-9.99503366C667.00169277 5.538091490000056 612.23396021-12.501676549999956 558.71598288-19.886956850000047a342.75558526 342.75558526 0 0 0-46.71498093-3.22811582c-97.20227664 0-188.58672893 37.85344546-257.31924582 106.58496039s-106.58496039 160.11696918-106.58496038 257.31824386c0 97.20227664 37.85244351 188.58672893 106.58496038 257.31924583 68.73251688 68.73251688 160.11696918 106.58496039 257.31924582 106.58496039 97.20327942 0 188.58572698-37.85244351 257.31924664-106.58496039 68.73151492-68.73251688 106.58496039-160.11696918 106.58496039-257.31924583 0-26.26289539-2.79516165-52.08882715-8.18804992-77.16811266a23.74133616 23.74133616 0 0 1-0.5622399-2.44138239c-0.00601336-0.03708216-0.07215875-0.41090542-0.20545313-1.09240823a360.04870706 360.04870706 0 0 0-20.04418597-62.10390399 93.36581955 93.36581955 0 0 1-1.35699143-3.34136619 315.66286093 315.66286093 0 0 0-7.40131567-15.45807678c-5.87394854-11.44923926-1.35498669-25.49420041 10.09425174-31.37015369a23.2061564 23.2061564 0 0 1 10.61941031-2.57367315c8.45964844 0 16.62063904 4.62319134 20.74873948 12.66892767 22.17388101 43.21025437 30.85902741 81.99675714 32.95564892 92.61215881 6.60756609 29.41584577 9.94091419 59.59036368 9.94091418 90.26698865z"  horiz-adv-x="1024" />

    
    <glyph glyph-name="bitian" unicode="&#59097;" d="M534.87 405.504a1403.307 1403.307 0 0 1 50.858 25.813c16.043 8.619 29.013 15.062 38.57 19.03 9.558 3.925 17.067 6.058 22.87 6.058 9.557 0 17.75-3.2 24.917-10.026 6.827-6.827 10.582-15.062 10.582-25.088 0-5.76-1.707-11.819-5.12-17.92-3.414-6.102-7.168-10.07-10.923-11.862-35.157-14.677-74.41-25.429-116.736-31.872 7.85-7.168 17.067-17.237 28.33-29.781 11.265-12.544 17.067-18.987 17.75-20.053 4.096-6.102 9.899-13.654 17.408-22.614 7.51-8.96 12.63-15.786 15.36-20.778 2.73-5.035 4.437-11.094 4.437-18.304a33.707 33.707 0 0 0-9.898-24.022 33.835 33.835 0 0 0-25.6-10.41c-10.24 0-22.187 8.618-35.158 25.472-12.97 16.512-30.037 46.933-50.517 91.05-20.821-39.424-34.816-65.962-41.643-78.506-7.168-12.544-13.994-22.187-20.48-28.672a30.976 30.976 0 0 0-22.528-9.686 32.256 32.256 0 0 0-25.258 11.094 35.413 35.413 0 0 0-9.899 23.68c0 7.893 1.365 13.653 4.096 17.578 25.259 35.84 51.541 67.414 78.848 93.568a756.65 756.65 0 0 0-61.44 12.544 383.061 383.061 0 0 0-57.685 20.48c-3.414 1.75-6.486 5.718-9.558 11.819a30.208 30.208 0 0 0-5.12 16.853 32.427 32.427 0 0 0 10.582 25.088 33.152 33.152 0 0 0 24.234 10.027c6.486 0 14.678-2.133 24.576-6.101 9.899-4.267 22.187-10.027 37.547-18.262 15.36-7.893 32.427-16.853 51.883-26.538-3.414 18.261-6.486 39.082-8.875 62.378-2.39 23.296-3.413 39.424-3.413 48.043 0 10.752 3.072 19.712 9.557 27.264a30.677 30.677 0 0 0 24.917 11.819c9.899 0 18.091-3.926 24.576-11.478 6.486-7.893 9.558-17.92 9.558-30.464 0-3.584-0.683-10.41-1.366-20.48-0.682-10.368-2.389-22.57-4.096-36.906-2.048-14.678-4.096-31.147-6.144-49.835z"  horiz-adv-x="1024" />

    
    <glyph glyph-name="checkbox" unicode="&#59153;" d="M820.53125001 804H203.46874999C141.96875002 804 92 753.93749999 92 692.53125001v-617.0625C92 13.968750020000016 141.96875002-36 203.46874999-36h617.0625c61.49999999 0 111.46875001 49.96875001 111.46875001 111.46875001V692.53125001C932 753.93749999 882.03124998 804 820.53125001 804z m64.78125-728.53125001c0-35.71875001-29.0625-64.78125001-64.78125002-64.78125H203.46874999c-35.71875001 0-64.78125001 29.0625-64.78125 64.78125V692.53125001c0 35.71875001 29.0625 64.78125001 64.78125002 64.78125h617.0625c35.71875001 0 64.78125001-29.0625 64.78125-64.78125002v-617.0625z"  horiz-adv-x="1024" />

    
    <glyph glyph-name="checkbox-all" unicode="&#59098;" d="M830.57777813 793.6H193.42222187c-50.06222187 0-91.02222187-40.96-91.02222187-91.02222187v-637.15555626c0-50.06222187 40.96-91.02222187 91.02222187-91.02222187h637.15555626c50.06222187 0 91.02222187 40.96 91.02222187 91.02222187V702.5777781300001c0 50.06222187-40.96 91.02222187-91.02222187 91.02222187z m-91.02222293-455.11111147H284.4444448v91.02222294h455.1111104v-91.02222294z"  horiz-adv-x="1024" />

    
    <glyph glyph-name="radio-checked2" unicode="&#59095;" d="M511.99849954 802.3564487900001C285.24601157 802.3564487900001 101.42729327 618.76189856 101.42729327 392.28193113 101.42729327 165.80698003999998 285.24601157-17.787570189999997 511.99849954-17.787570189999997 738.75399255-17.787570189999997 922.57271332 165.80698003999998 922.57271332 392.28193113 922.57271332 618.76189856 738.75399255 802.3564487900001 511.99849954 802.3564487900001L511.99849954 802.3564487900001ZM733.46846487 497.12974951L455.75919117 219.76315036000005C450.28120608 214.29184194000004 440.77868183 214.91354892000004 434.52886819 221.15574819000005L415.91474454 239.74716393999995C415.91474454 239.75117752000006 415.91073507 239.75117752000006 415.91073507 239.75519109000004L291.48680432 364.023375C285.24200293 370.26457068 285.24200293 380.37821466 291.48680432 386.61941033L325.41923642 420.51045337C331.66804892 426.75164988 341.79405252 426.75164988 348.04286502 420.51045337L445.84168363 322.83090674000005 676.91240583 553.6168278800001C682.39039172 559.0881363 691.89291598 558.46642932 698.13872098 552.22423005L732.07416058 518.33416754C738.32397421 512.0959810100001 738.94644995 502.6010571 733.46846487 497.12974951L733.46846487 497.12974951Z"  horiz-adv-x="1024" />

    
    <glyph glyph-name="sousuo" unicode="&#58956;" d="M950.436052-12.4718l-0.463558 0.451278 0.002047 0.001023L775.148817 162.676265c61.270459 70.873164 98.333586 163.254178 98.333586 264.292362 0 223.300762-181.02082 404.321582-404.321582 404.321582-223.300762 0-404.321582-181.02082-404.321582-404.321582s181.02082-404.321582 404.321582-404.321582c101.063767 0 193.465247 37.080523 264.34455 98.377588L904.993071-50.336176l-0.048095-0.047072 4.389984-4.27742c11.650341-11.349489 30.29498-11.105942 41.643446 0.542352C962.32994-42.466951 962.086393-23.820266 950.436052-12.4718zM122.714368 426.968627c0 191.33677 155.109684 346.44543 346.44543 346.44543 191.335746 0 346.444407-155.10866 346.444407-346.44543 0-191.335746-155.10866-346.44543-346.444407-346.44543C277.824051 80.522174 122.714368 235.632881 122.714368 426.968627z"  horiz-adv-x="1024" />

    
    <glyph glyph-name="wancheng11" unicode="&#59096;" d="M119.78808619 334.56152345l184.57031225 145.01953098 158.20312499-148.31542968c0 0 293.33496068 253.78417943 540.5273435 395.5078125l0-95.58105444C660.31542969 331.26562475000003 446.0820315 14.859374750000029 446.0820315 14.859374750000029L119.78808619 334.56152345 119.78808619 334.56152345zM119.78808619 334.56152345"  horiz-adv-x="1152" />

    
    <glyph glyph-name="xiangshang" unicode="&#59406;" d="M550.655392-51.988816l0.036839 738.190579L732.148979 497.690342c4.825912-4.825912 12.649088-4.825912 17.476023-0.001023l37.867446 37.863353c4.825912 4.825912 4.825912 12.649088 0.001023 17.476023L559.059805 790.336472c-0.231267 0.274246-0.467651 0.544399-0.727571 0.802272l-1.26583 1.266853-35.229362 36.597523c-2.584871 2.583848-6.027274 3.76986-9.411347 3.587712-3.390213 0.189312-6.841825-0.9967-9.431813-3.584642l-35.307134-36.672224-1.190105-1.190105c-0.242524-0.242524-0.465604-0.499373-0.684592-0.757247L237.316987 553.055301c-4.826935-4.825912-4.826935-12.649088-0.001023-17.476023l37.863353-37.865399c4.824889-4.826935 12.648065-4.826935 17.475-0.001023l179.774433 186.723705-0.036839-736.422306c0-6.825452 5.531993-12.356422 12.355399-12.357446l53.54859-0.00307C545.120328-64.344215 550.654368-58.814268 550.655392-51.988816L550.655392-51.988816z"  horiz-adv-x="1024" />

    
    <glyph glyph-name="xiangxia" unicode="&#59407;" d="M473.65467 820.21292l0.780783-738.190579L292.768927 270.333194c-4.832052 4.819772-12.654204 4.811586-17.476023-0.01842l-37.82549-37.905308c-4.819772-4.832052-4.811586-12.654204 0.01842-17.476023l228.695632-237.055021c0.231267-0.273223 0.468674-0.544399 0.727571-0.801249l1.266853-1.264806 35.269271-36.558637c2.587941-2.580778 6.031367-3.76372 9.41544-3.576455 3.390213-0.186242 6.840802 1.003863 9.42772 3.595898l35.266202 36.71111 1.189082 1.191128c0.242524 0.243547 0.464581 0.499373 0.683569 0.757247l228.234121 237.583047c4.821819 4.832052 4.813632 12.654204-0.01842 17.476023l-37.905308 37.823444c-4.830005 4.821819-12.653181 4.813632-17.475-0.01842L552.695864 83.874525l-0.778736 736.421282c-0.007163 6.825452-5.545296 12.350283-12.369725 12.343119l-53.54859-0.056282C479.175407 832.575482 473.647507 827.038372 473.65467 820.21292L473.65467 820.21292z"  horiz-adv-x="1024" />

    
    <glyph glyph-name="gengduo" unicode="&#58913;" d="M343.8456667-8c-8.189 0-16.379 3.124-22.628 9.372-12.496 12.497-12.496 32.759 0 45.256L658.5906667 384 321.2176667 721.373c-12.496 12.497-12.496 32.758 0 45.255 12.498 12.497 32.758 12.497 45.256 0l360-360c12.496-12.497 12.496-32.758 0-45.255l-360-360c-6.249-6.249-14.439-9.373-22.628-9.373z"  horiz-adv-x="1024" />

    
    <glyph glyph-name="shang" unicode="&#58940;" d="M904 204c0-8.189-3.124-16.379-9.372-22.628-12.497-12.496-32.759-12.496-45.256 0L512 518.745 174.628 181.372c-12.497-12.496-32.758-12.496-45.255 0-12.497 12.498-12.497 32.758 0 45.256l360 360c12.497 12.496 32.758 12.496 45.255 0l360-360C900.876 220.379 904 212.189 904 204z"  horiz-adv-x="1024" />

    
    <glyph glyph-name="xia" unicode="&#58941;" d="M904 564c0 8.189-3.124 16.379-9.372 22.628-12.497 12.496-32.759 12.496-45.256 0L512 249.255 174.628 586.628c-12.497 12.496-32.758 12.496-45.255 0-12.497-12.498-12.497-32.758 0-45.256l360-360c12.497-12.496 32.758-12.496 45.255 0l360 360C900.876 547.621 904 555.811 904 564z"  horiz-adv-x="1024" />

    
    <glyph glyph-name="zuo" unicode="&#58942;" d="M694.5663333-8c8.189 0 16.379 3.124 22.628 9.372 12.496 12.497 12.496 32.759 0 45.256L379.8213333 384l337.373 337.373c12.496 12.497 12.496 32.758 0 45.255-12.498 12.497-32.758 12.497-45.256 0l-360-360c-12.496-12.497-12.496-32.758 0-45.255l360-360c6.249-6.249 14.439-9.373 22.628-9.373z"  horiz-adv-x="1024" />

    
    <glyph glyph-name="cancel" unicode="&#59102;" d="M482.7 646.1v143.8c0 37.4-45.3 56.2-71.7 29.7l-270.7-270.6c-16.4-16.4-16.4-43 0-59.4l270.6-270.6c26.5-26.5 71.7-7.7 71.7 29.7v155c96.1 0.3 271.5 10.7 271.5-227.7 0-118.1-92.8-216.8-216-239.6 198.1 24.4 326 236 326 361.9 0.1 292.6-309.4 346.3-381.4 347.8z"  horiz-adv-x="1024" />

    
    <glyph glyph-name="shangjiantou" unicode="&#58880;" d="M65.582671 160.791335l446.417329 446.41733 446.417329-446.41733z"  horiz-adv-x="1024" />

    
    <glyph glyph-name="xiajiantou" unicode="&#58881;" d="M65.582671 607.208665l446.417329-446.41733 446.417329 446.41733z"  horiz-adv-x="1024" />

    
    <glyph glyph-name="youjiantou" unicode="&#58882;" d="M288.791335 830.417329l446.41733-446.417329-446.41733-446.417329z"  horiz-adv-x="1024" />

    
    <glyph glyph-name="zuojiantou" unicode="&#58883;" d="M735.208665 830.417329l-446.41733-446.417329 446.41733-446.417329z"  horiz-adv-x="1024" />

    
    <glyph glyph-name="radio-checked" unicode="&#59107;" d="M512-37.875C279.00487109-37.875 90.125 151.00487109000005 90.125 384 90.125 616.99512891 279.00487109 805.875 512 805.875 744.99512891 805.875 933.875 616.99512891 933.875 384 933.875 151.00487109000005 744.99512891-37.875 512-37.875ZM512 14.859375C715.87073532 14.859375 881.140625 180.12926468 881.140625 384 881.140625 587.87073779 715.87073532 753.140625 512 753.140625 308.12926221 753.140625 142.859375 587.87073779 142.859375 384 142.859375 180.12926468 308.12926221 14.859375 512 14.859375ZM512 120.328125C657.62195309 120.328125 775.671875 238.37804690999997 775.671875 384 775.671875 529.62195557 657.62195309 647.671875 512 647.671875 366.37804443 647.671875 248.328125 529.62195557 248.328125 384 248.328125 238.37804690999997 366.37804443 120.328125 512 120.328125Z"  horiz-adv-x="1024" />

    
    <glyph glyph-name="bianji2" unicode="&#59108;" d="M474.47070312 106.00195312000005h85.95703126v-85.95703124h-85.95703125v85.95703125z m157.67578126 1e-8h85.95703124v-85.95703125h-85.95703125v85.95703125z m157.58789062 0h85.95703125v-85.95703125H789.734375v85.95703125zM220.90625 255.85546875c-8.96484375-8.96484375-14.58984375-19.86328125-17.2265625-31.2890625L147.95703125 53.79492187000005l0.26367188-0.26367187c-2.72460938-8.87695313-0.61523438-18.89648438 6.41601562-26.015625 6.85546875-6.85546875 16.61132813-8.96484375 25.40039063-6.59179687l0.08789062-0.08789063L351.86328125 76.3828125l-0.08789063 0.08789063c11.42578125 2.72460938 22.41210938 8.34960938 31.28906251 17.22656249L755.984375 466.6171875 593.82617188 628.86328125 220.90625 255.85546875zM857.84960938 568.5703125c25.57617188 25.57617188 22.06054688 87.71484375-12.39257813 124.18945313l-12.91992188 13.71093749-13.27148437 12.48046875C784.72460938 753.58007813 721.26757813 756.3046875 695.69140625 730.72851563l-39.81445313-39.81445313 162.15820313-162.15820313 39.81445313 39.81445313z m-1e-8 0"  horiz-adv-x="1024" />

    
    <glyph glyph-name="radio" unicode="&#59110;" d="M512-37.875c-232.875 0-421.875 189-421.875 421.875s189 421.875 421.875 421.875S933.875 616.875 933.875 384s-189-421.875-421.875-421.875z m0 52.734375c203.765625 0 369.140625 165.375 369.140625 369.140625s-165.375 369.140625-369.140625 369.140625-369.140625-165.375-369.140625-369.140625 165.375-369.140625 369.140625-369.140625z"  horiz-adv-x="1024" />

    
    <glyph glyph-name="checkbox-checked" unicode="&#59166;" d="M806.5791626 796.41082763H217.4208374A117.83166503 117.83166503 0 0 1 99.58917237 678.5791626v-589.1583252a117.83166503 117.83166503 0 0 1 117.83166503-117.83166503h589.1583252a117.83166503 117.83166503 0 0 1 117.83166503 117.83166503V678.5791626A117.83166503 117.83166503 0 0 1 806.5791626 796.41082763z m-43.24383545-263.53015136L478.12310791 178.56005859000004l-2.76855468-2.17941284-2.94570924-3.35852051-7.54183959-3.82901001a38.88418579 38.88418579 0 0 0-23.80133057-1.11978149h-5.95074463l-4.24182129 4.83096313a35.40866089 35.40866089 0 0 0-6.65771484 5.89141846l-162.37243653 186.70440674a42.41903687 42.41903687 0 0 0-10.36889648 27.63198853 41.71206665 41.71206665 0 0 0 9.95690918 28.63311767 35.64431763 35.64431763 0 0 0 55.32165527 0.23565674l133.44433594-153.18182373 256.22561645 318.20498657A35.64431763 35.64431763 0 0 0 733.64093018 601.2821045000001h0.11782836c11.54718018 0 20.85562133-4.24264526 28.04397583-12.1956482 6.89254761-7.65966797 10.54605102-17.0859375 10.84020996-27.80914307a44.01013183 44.01013183 0 0 0-9.30844116-28.39663696z"  horiz-adv-x="1024" />

    


  </font>
</defs>
</svg>
